<svg xmlns="http://www.w3.org/2000/svg" xmlns:xlink="http://www.w3.org/1999/xlink" width="111.209" height="111.209" viewBox="0 0 111.209 111.209"><defs><clipPath id="a"><rect width="111.209" height="111.209" fill="none"/></clipPath></defs><g clip-path="url(#a)"><path d="M111.209,55.606A55.6,55.6,0,1,1,55.6,0a55.605,55.605,0,0,1,55.605,55.607" transform="translate(0 -0.001)" fill="#e6aaa3"/><path d="M16.937,23.675h7.607c4.422,0,5.1,1.884,5.1,3.379a2.66,2.66,0,0,1-2.057,2.717v.02A2.906,2.906,0,0,1,30.239,32.7c0,2.077-1.02,3.746-5.423,3.746H16.937Zm7.7,5.183c1.457,0,1.966-.5,1.966-1.32,0-.736-.564-1.3-2.184-1.3H20.431v2.62Zm.018,5.048c1.765,0,2.276-.6,2.276-1.533,0-.7-.582-1.338-2.2-1.338h-4.3v2.872Z" transform="translate(11.325 15.83)" fill="#fff"/><path d="M25.916,23.675H37.235v2.757H29.411v2.5h6.005v2.176H29.411v2.581h8.006v2.757h-11.5Z" transform="translate(17.328 15.83)" fill="#fff"/><path d="M33.7,32.252h3.13c0,1.086.728,1.961,3.731,1.961,3.167,0,3.694-.679,3.694-1.553,0-.522-.31-.834-.948-.989a34.878,34.878,0,0,0-3.911-.33,11.661,11.661,0,0,1-4.313-.853,2.885,2.885,0,0,1-1.457-2.641c0-2.369,2.149-4.31,6.9-4.31,5.7,0,6.678,2.1,6.678,4.407H44.076c0-1.165-1.075-1.844-3.549-1.844-2.4,0-3.4.564-3.4,1.477a.946.946,0,0,0,.764.949,25.5,25.5,0,0,0,3.8.389,13.812,13.812,0,0,1,4.258.719,2.9,2.9,0,0,1,1.8,2.737c0,2.019-1.02,4.407-7.188,4.407-6.224,0-6.861-2.815-6.861-4.524" transform="translate(22.485 15.736)" fill="#fff"/><path d="M47.191,26.432H42.478V23.675H55.4v2.757H50.685V36.449H47.191Z" transform="translate(28.402 15.83)" fill="#fff"/><path d="M9.488,43.893h3.13c0,1.086.728,1.961,3.731,1.961,3.167,0,3.694-.679,3.694-1.553,0-.522-.31-.834-.948-.99a34.878,34.878,0,0,0-3.911-.33,11.661,11.661,0,0,1-4.313-.853,2.886,2.886,0,0,1-1.455-2.641c0-2.369,2.148-4.31,6.9-4.31,5.7,0,6.678,2.1,6.678,4.407H19.862c0-1.165-1.075-1.844-3.549-1.844-2.4,0-3.4.564-3.4,1.477a.944.944,0,0,0,.763.949,25.5,25.5,0,0,0,3.8.389,13.812,13.812,0,0,1,4.258.719,2.9,2.9,0,0,1,1.8,2.737c0,2.019-1.02,4.407-7.188,4.407-6.224,0-6.861-2.815-6.861-4.524" transform="translate(6.296 23.52)" fill="#fff"/><path d="M18.94,35.316H30.258v2.757H22.434v2.5h6.005v2.176H22.434v2.581H30.44V48.09H18.94Z" transform="translate(12.664 23.613)" fill="#fff"/><path d="M26.839,35.316h3.494v9.822h7.1V48.09H26.839Z" transform="translate(17.945 23.613)" fill="#fff"/><path d="M34.083,35.316h3.494v9.822h7.1V48.09H34.083Z" transform="translate(22.789 23.613)" fill="#fff"/><path d="M41.327,35.316H52.646v2.757H44.822v2.5h6.005v2.176H44.822v2.581h8.006V48.09h-11.5Z" transform="translate(27.633 23.613)" fill="#fff"/><path d="M49.227,35.316h7.534c4.44,0,5.824,1.5,5.824,3.784a2.932,2.932,0,0,1-2.166,3.049v.04c1.894.466,2.092,1.882,2.092,3.222v2.68H59.017v-2.68c0-1.32-.472-1.922-1.966-1.922h-4.33v4.6H49.227Zm7.7,6c1.729,0,2.348-.679,2.348-1.669,0-.913-.637-1.574-2.656-1.574H52.721v3.242Z" transform="translate(32.915 23.613)" fill="#fff"/></g></svg>