<svg xmlns="http://www.w3.org/2000/svg" width="35.034" height="35.026" viewBox="0 0 35.034 35.026"><path d="M17.516,10.771a8.98,8.98,0,1,0,8.98,8.98A8.966,8.966,0,0,0,17.516,10.771Zm0,14.819a5.838,5.838,0,1,1,5.838-5.838,5.849,5.849,0,0,1-5.838,5.838ZM28.958,10.4a2.095,2.095,0,1,1-2.095-2.095A2.09,2.09,0,0,1,28.958,10.4Zm5.948,2.126c-.133-2.806-.774-5.291-2.829-7.339S27.543,2.5,24.737,2.361c-2.892-.164-11.559-.164-14.451,0-2.8.133-5.283.774-7.339,2.821S.259,9.715.118,12.521c-.164,2.892-.164,11.559,0,14.451.133,2.806.774,5.291,2.829,7.339S7.48,37,10.286,37.141c2.892.164,11.559.164,14.451,0,2.806-.133,5.291-.774,7.339-2.829s2.689-4.533,2.829-7.339c.164-2.892.164-11.552,0-14.443ZM31.17,30.075a5.911,5.911,0,0,1-3.33,3.33c-2.306.914-7.777.7-10.325.7s-8.027.2-10.325-.7a5.911,5.911,0,0,1-3.33-3.33c-.914-2.306-.7-7.777-.7-10.325s-.2-8.027.7-10.325A5.911,5.911,0,0,1,7.191,6.1c2.306-.914,7.777-.7,10.325-.7s8.027-.2,10.325.7a5.911,5.911,0,0,1,3.33,3.33c.914,2.306.7,7.777.7,10.325S32.084,27.778,31.17,30.075Z" transform="translate(0.005 -2.238)" fill="#9cc725"/></svg>