<svg xmlns="http://www.w3.org/2000/svg" width="35.015" height="35.015" viewBox="0 0 35.015 35.015"><path d="M29.77,7.338A17.357,17.357,0,0,0,2.462,28.276L0,37.265l9.2-2.415a17.3,17.3,0,0,0,8.292,2.11H17.5A17.518,17.518,0,0,0,35.014,19.609,17.419,17.419,0,0,0,29.77,7.338ZM17.5,34.037a14.4,14.4,0,0,1-7.347-2.009l-.524-.313-5.455,1.43,1.454-5.323-.344-.547a14.449,14.449,0,1,1,26.8-7.667A14.583,14.583,0,0,1,17.5,34.037Zm7.91-10.8c-.43-.219-2.564-1.266-2.962-1.407s-.688-.219-.977.219-1.118,1.407-1.376,1.7-.508.328-.938.109c-2.548-1.274-4.22-2.274-5.9-5.158-.445-.766.445-.711,1.274-2.368a.8.8,0,0,0-.039-.758c-.109-.219-.977-2.353-1.336-3.22-.352-.844-.711-.727-.977-.742-.25-.016-.539-.016-.828-.016a1.606,1.606,0,0,0-1.157.539,4.872,4.872,0,0,0-1.516,3.619,8.493,8.493,0,0,0,1.766,4.486c.219.289,3.056,4.666,7.409,6.55,2.751,1.188,3.83,1.29,5.205,1.086a4.441,4.441,0,0,0,2.923-2.063,3.626,3.626,0,0,0,.25-2.063C26.128,23.556,25.839,23.446,25.409,23.235Z" transform="translate(0 -2.25)" fill="#9cc725"/></svg>