<svg xmlns="http://www.w3.org/2000/svg" xmlns:xlink="http://www.w3.org/1999/xlink" width="111" height="111.343" viewBox="0 0 111 111.343"><defs><clipPath id="a"><rect width="110.056" height="111.343" fill="none"/></clipPath></defs><g transform="translate(-960 -2204)"><circle cx="55.5" cy="55.5" r="55.5" transform="translate(960 2204)" fill="#fff" opacity="0"/><g transform="translate(960 2204)"><path d="M41.256,1.354l2.287.737,3.388,7.587.023.008,1.9-5.88,1.541.5-2.65,8.2-1.586-.51L42.333,3.365l-.012,0L40.16,10.053l-1.552-.5Z" transform="translate(26.184 0.919)"/><g transform="translate(0 0)"><g clip-path="url(#a)"><path d="M46.125,7.957l2.449-4.078,1.453.874-2.341,3.9c-.987,1.64-.47,2.925,1.183,3.917,1.673,1,3.064.859,4.05-.78l2.339-3.9,1.327.8-2.45,4.075c-1.4,2.336-3.556,2.558-6.072,1.049-2.484-1.489-3.343-3.516-1.938-5.852" transform="translate(30.826 2.631)"/><path d="M55.805,7.858l5.51,5.09L60.348,14l-4.264-3.939L54.55,11.72l3.363,3.1-.8.868-3.363-3.11-1.569,1.7,4.357,4.023-.968,1.049-5.6-5.174Z" transform="translate(33.89 5.33)"/><path d="M59.509,11.862l1.123,1.6-3.657,7.159.015.02,7.961-1.027,1.024,1.458-9.7,1.168-1.15-1.64Z" transform="translate(37.386 8.046)"/><path d="M61.948,26.3l-2.2-5.11-2.157-.166-.7-1.635,9.769.881.784,1.816L61.371,29.8l-.78-1.816Zm.846-1.047,2.88-3.585,0-.012-4.582-.362Z" transform="translate(38.582 13.151)"/><path d="M64.235,27.731C66.7,27.5,68.864,29,69.164,32.241c.319,3.442-1.594,4.79-2.989,4.919l-.17.017-.141-1.527.052-.005c.9-.084,2.036-1.025,1.834-3.187A2.955,2.955,0,0,0,64.4,29.465c-1.537.143-2.912,1.217-2.694,3.575.19,2.029,1.272,2.925,2.355,2.826l.077-.008.141,1.529-.143.013c-1.616.149-3.551-1-3.853-4.264-.346-3.712,1.792-5.2,3.956-5.4" transform="translate(40.858 18.793)"/><path d="M65.316,34.421c2.413.324,4.16,2.266,3.7,5.746s-2.665,4.89-5.08,4.568c-2.479-.332-4.254-2.17-3.773-5.756.468-3.491,2.548-4.907,5.157-4.558m-1.153,8.586c1.648.222,3.125-.743,3.432-3.031s-.863-3.608-2.511-3.828c-1.831-.245-3.2.722-3.511,3.021-.316,2.36.851,3.6,2.589,3.838" transform="translate(40.747 23.31)"/><path d="M68.611,43.587l-.562,1.6L61.32,42.827l-1.742,4.959-1.4-.488,2.306-6.56Z" transform="translate(39.46 27.629)"/><path d="M66.989,49.338,63.3,55.871l-1.242-.7,2.856-5.058L62.943,49l-2.252,3.987L59.667,52.4l2.252-3.987L59.9,47.275l-2.915,5.164-1.24-.7L59.491,45.1Z" transform="translate(37.807 30.586)"/><path d="M60.889,51.334c1.876,1.609,2.3,4.207.19,6.674-2.252,2.626-4.551,2.19-5.612,1.28l-.131-.111,1-1.166.04.034c.686.589,2.153.748,3.566-.9a2.953,2.953,0,0,0-.186-4.489c-1.171-1.007-2.9-1.242-4.439.554-1.326,1.547-1.218,2.949-.393,3.655l.059.052-1,1.165-.111-.1c-1.23-1.054-1.75-3.246.383-5.731,2.427-2.831,4.983-2.336,6.632-.921" transform="translate(35.812 34.046)"/><path d="M56.8,56.607c1.48,1.984,1.329,4.613-1.277,6.558-2.771,2.073-4.919,1.143-5.756.022l-.1-.136,1.228-.92.032.042c.54.725,1.937,1.2,3.677-.1a2.953,2.953,0,0,0,.8-4.422c-.926-1.239-2.559-1.848-4.457-.431-1.633,1.222-1.833,2.613-1.183,3.484l.049.064-1.23.916-.086-.116c-.972-1.3-1-3.549,1.626-5.511,2.989-2.234,5.377-1.192,6.678.55" transform="translate(32.481 37.155)"/><path d="M51.126,65.047l-1.477.8-4.1-7.572,1.477-.8Z" transform="translate(30.891 38.982)"/><path d="M50,62.028c.821,2.294-.1,4.739-3.41,5.921s-5.57-.124-6.389-2.418c-.842-2.356-.027-4.778,3.383-5.995,3.316-1.185,5.53.012,6.416,2.492m-8.159,2.913c.561,1.569,2.1,2.437,4.269,1.663s2.809-2.423,2.249-3.991c-.621-1.74-2.111-2.516-4.295-1.735-2.242.8-2.814,2.413-2.224,4.063m5.2,5.474-1.663.6.936-2.338,1.284-.46Z" transform="translate(27.059 40.066)"/><path d="M43.432,69.14l-2.391.257-6.176-5.55-.025,0L35.494,70l-1.611.173L32.972,61.6l1.66-.178,7,6.317.013,0L40.9,60.751l1.621-.176Z" transform="translate(22.362 41.083)"/><path d="M27.547,71.064l-.962-.131,6.476-11.544.958.131Z" transform="translate(18.03 40.279)"/><path d="M26.936,69.56l-2.23-.889-2.866-7.8-.022-.01L19.524,66.6l-1.5-.6,3.2-7.993,1.549.619L26,67.481l.012.005,2.61-6.522,1.514.6Z" transform="translate(12.223 39.341)"/><path d="M22.206,62.44l-2.72,3.9-1.39-.965,2.6-3.729c1.1-1.567.67-2.887-.91-3.986-1.6-1.118-3-1.066-4.093.5l-2.6,3.726L11.823,61l2.724-3.9c1.559-2.234,3.721-2.309,6.127-.633,2.376,1.656,3.095,3.736,1.532,5.969" transform="translate(8.019 37.512)"/><path d="M12.627,62.13l-5.15-5.437,1.035-.98L12.5,59.922l1.643-1.557L11,55.045l.856-.809L15,57.554l1.683-1.591-4.073-4.3,1.035-.98,5.238,5.525Z" transform="translate(5.071 34.376)"/><path d="M8.9,57.324l-1.01-1.666,4.137-6.892-.013-.022-8.008.5-.92-1.522,9.754-.52,1.034,1.71Z" transform="translate(2.093 32.01)"/><path d="M7.5,42.838l1.846,5.248,2.14.314.591,1.678L2.39,48.534l-.656-1.864,6.579-7.28.658,1.864Zm-.918.988L3.466,47.2l0,.013,4.546.673Z" transform="translate(1.176 26.715)"/><path d="M4.615,40.937C2.143,41,.085,39.361,0,36.11c-.089-3.457,1.91-4.674,3.309-4.709l.169,0,.04,1.532H3.469c-.9.025-2.1.888-2.042,3.059A2.951,2.951,0,0,0,4.571,39.2c1.544-.04,2.984-1.02,2.925-3.387-.052-2.036-1.072-3-2.157-2.975l-.079,0L5.221,31.3l.143,0c1.625-.042,3.476,1.235,3.559,4.508.094,3.729-2.135,5.073-4.308,5.127" transform="translate(0 21.23)"/><path d="M4.024,34.532C1.639,34.042.03,31.983.73,28.542s2.986-4.7,5.37-4.212c2.447.5,4.093,2.457,3.372,6.006-.7,3.452-2.871,4.724-5.447,4.2M5.753,26.04c-1.63-.336-3.167.527-3.625,2.789s.616,3.66,2.244,3.994c1.807.371,3.239-.5,3.7-2.774.473-2.334-.608-3.657-2.323-4.009" transform="translate(0.383 16.433)"/><path d="M1.969,23.72l.665-1.557,6.557,2.816,2.068-4.825,1.359.584L9.886,27.118Z" transform="translate(1.336 13.669)"/><path d="M4.278,19.757l4.117-6.263,1.192.782L6.4,19.129l1.89,1.244L10.8,16.548l.983.648L9.276,21.019l1.933,1.275,3.254-4.952,1.192.784-4.184,6.369Z" transform="translate(2.901 9.152)"/><path d="M9.875,17.7c-1.765-1.737-2.016-4.362.262-6.678,2.428-2.469,4.694-1.876,5.694-.893l.121.121-1.077,1.093-.037-.037c-.644-.633-2.1-.894-3.62.655a2.957,2.957,0,0,0-.119,4.5c1.1,1.082,2.811,1.438,4.472-.252,1.426-1.452,1.413-2.858.638-3.622l-.055-.055,1.076-1.093.1.1c1.158,1.141,1.529,3.361-.769,5.7-2.615,2.662-5.135,1.989-6.688.465" transform="translate(5.758 6.294)"/><path d="M14.382,12.638c-1.343-2.079-1.014-4.694,1.713-6.461,2.9-1.878,4.981-.806,5.739.373l.094.143-1.287.832-.029-.044c-.49-.759-1.851-1.329-3.672-.149a2.956,2.956,0,0,0-1.1,4.36c.837,1.3,2.425,2.017,4.412.732,1.71-1.106,2-2.482,1.415-3.4l-.044-.065,1.287-.836.079.123c.878,1.363.754,3.613-2,5.394-3.128,2.024-5.437.821-6.616-1.005" transform="translate(9.234 3.498)"/><rect width="1.681" height="8.622" transform="translate(31.539 6.389) rotate(-24.543)"/><path d="M21.764,8.644C21.107,6.3,22.2,3.924,25.581,2.97s5.541.508,6.2,2.855c.675,2.407-.309,4.766-3.793,5.746-3.39.957-5.511-.391-6.219-2.927M30.1,6.3c-.446-1.6-1.917-2.574-4.137-1.95s-2.969,2.225-2.521,3.826c.5,1.779,1.925,2.655,4.157,2.024,2.289-.644,2.975-2.21,2.5-3.9M25.3.478,27,0,25.9,2.267l-1.311.369Z" transform="translate(14.638 0)"/><path d="M28.686.935l2.4-.092,5.8,5.968.022,0L36.671.631,38.291.569l.336,8.613-1.668.064-6.567-6.79-.012,0,.274,7.028-1.631.062Z" transform="translate(19.455 0.386)"/><path d="M40.718.424l.96.119-6.332,11.6-.962-.119Z" transform="translate(23.32 0.288)"/></g></g></g></g></svg>