<svg xmlns="http://www.w3.org/2000/svg" xmlns:xlink="http://www.w3.org/1999/xlink" width="111" height="111.906" viewBox="0 0 111 111.906"><defs><clipPath id="a"><rect width="111" height="111.906" fill="none"/></clipPath></defs><g transform="translate(-814 -2232.543)"><circle cx="55.5" cy="55.5" r="55.5" transform="translate(814 2232.996)" fill="#ff0707" opacity="0"/><g transform="translate(814 2232.543)"><path d="M43.4,3.767,39.9,2.7l.438-1.431,8.692,2.657-.436,1.431L45.1,4.287,42.889,11.5l-1.7-.518Z" transform="translate(27.037 0.859)" fill="#dd6c51"/><path d="M48.461,3.48l6.913,3.738-.711,1.317L49.312,5.64l-1.129,2.09L52.4,10.014,51.815,11.1l-4.221-2.28L46.44,10.957l5.466,2.956-.711,1.315-7.028-3.8Z" transform="translate(29.928 2.358)" fill="#dd6c51"/><path d="M54.765,6.675l1.906,1.651.164,8.72.02.017,4.241-4.9,1.285,1.111-5.912,6.838-1.324-1.144-.164-9.9-.01-.008-4.827,5.581-1.292-1.119Z" transform="translate(33.104 4.523)" fill="#dd6c51"/><g transform="translate(0 0)"><g clip-path="url(#a)"><path d="M61.169,12.067l2.439,3.365c2.342,3.229,1.377,5.456-.589,6.883C60.7,24,58.571,23.874,56.511,21.029L53.86,17.373ZM57.69,20.11c1.322,1.822,2.684,1.948,4.3.778,1.354-.985,1.975-2.421.45-4.525L61,14.384l-4.889,3.548Z" transform="translate(36.497 8.177)" fill="#dd6c51"/><path d="M65.637,18.1l3.208,7.179-1.367.612-2.483-5.558-2.171.97,1.958,4.382-1.129.5L61.695,21.8l-2.219.991L62.01,28.47l-1.367.611-3.258-7.3Z" transform="translate(38.885 12.262)" fill="#dd6c51"/><path d="M68.4,24.035l.507,2.474L63.722,33.53l.005.025,6.355-1.307.341,1.668-8.86,1.82-.351-1.718,5.9-7.959,0-.013-7.229,1.486-.344-1.679Z" transform="translate(40.345 16.286)" fill="#dd6c51"/><path d="M65.414,31.648c2.594.087,4.647,1.931,4.531,5.338-.122,3.624-2.29,4.773-3.76,4.724l-.178-.007.055-1.605.054,0c.946.032,2.253-.8,2.33-3.073a3.1,3.1,0,0,0-3.1-3.553c-1.619-.054-3.187.882-3.271,3.364-.074,2.134.933,3.209,2.074,3.248l.082,0-.054,1.605-.153-.005c-1.7-.057-3.56-1.51-3.446-4.939.133-3.907,2.553-5.177,4.83-5.1" transform="translate(41.05 21.443)" fill="#dd6c51"/><rect width="1.761" height="9.029" transform="translate(100.888 65.84) rotate(-79.461)" fill="#dd6c51"/><path d="M60.765,48.7l2.006-5.471-1.52-1.679.643-1.751,6.8,7.7-.715,1.946-10.176,1.5.713-1.944Zm1.4-.186,4.775-.654.005-.012-3.224-3.575Z" transform="translate(39.171 26.971)" fill="#dd6c51"/><rect width="0.952" height="12.901" transform="matrix(0.562, -0.827, 0.827, 0.562, 91.265, 81.352)" fill="#dd6c51"/><path d="M58.083,58.883l2.661-2.5,1.027,1.09L55.157,63.69,54.131,62.6l2.659-2.5-5.172-5.5,1.293-1.213Z" transform="translate(34.977 36.178)" fill="#dd6c51"/><path d="M57.188,63.51l-6.664,4.176-.794-1.268,5.157-3.233-1.262-2.017-4.068,2.55L48.9,62.671l4.067-2.55-1.29-2.062-5.268,3.3-.8-1.27,6.773-4.243Z" transform="translate(30.91 37.844)" fill="#dd6c51"/><path d="M52,67.188l-2.377.844-7.66-4.166-.023.007L44.1,69.988l-1.6.569-3.015-8.524,1.649-.585L49.82,66.2l.013,0-2.461-6.955,1.614-.572Z" transform="translate(26.757 39.753)" fill="#dd6c51"/><path d="M43.335,69.779l-4.135.446c-3.966.429-5.422-1.512-5.685-3.927-.309-2.852.857-4.634,4.35-5.011l4.494-.485Zm-5.258-7.011c-2.24.243-3.025,1.362-2.808,3.34.181,1.664,1.119,2.916,3.706,2.637l2.431-.263-.653-6Z" transform="translate(22.678 41.201)" fill="#dd6c51"/><path d="M35.29,70.646l-7.819-.75.144-1.491,6.053.582.232-2.364-4.775-.46.119-1.23,4.775.458.237-2.419-6.184-.6.146-1.488,7.949.763Z" transform="translate(18.615 41.26)" fill="#dd6c51"/><path d="M29.558,70.679l-2.4-.783-3.536-7.97-.025-.008-2,6.162-1.616-.525,2.8-8.591,1.663.544,4,9.057.012.005,2.282-7.011,1.629.532Z" transform="translate(13.537 39.954)" fill="#dd6c51"/><path d="M23.64,64.149c-1.361,2.209-3.979,3.08-6.883,1.288-3.089-1.906-3.015-4.36-2.245-5.613l.092-.151,1.371.844-.03.047c-.5.809-.419,2.355,1.518,3.55,1.919,1.184,3.649.654,4.62-.924.849-1.382.812-3.211-1.3-4.516-1.819-1.122-3.253-.78-3.85.191l-.042.07-1.371-.846.079-.128c.892-1.453,3.075-2.349,6-.544,3.332,2.055,3.238,4.788,2.043,6.731" transform="translate(9.53 38.226)" fill="#dd6c51"/><rect width="9.033" height="1.761" transform="translate(19.025 98.096) rotate(-49.712)" fill="#dd6c51"/><path d="M11.682,52.432l3.77,4.452,2.214-.487,1.206,1.426L8.8,59.906l-1.34-1.584,3.736-9.573,1.339,1.584Zm-.53,1.307-1.8,4.466.008.01,4.709-1.025Z" transform="translate(5.052 33.034)" fill="#dd6c51"/><rect width="12.914" height="0.952" transform="translate(4.519 80.834) rotate(-26.068)" fill="#dd6c51"/><path d="M3.082,43.82l.859,3.555-1.453.351L.354,38.89l1.453-.352.859,3.555,7.321-1.772.418,1.728Z" transform="translate(0.24 26.114)" fill="#dd6c51"/><path d="M.313,40.594,0,32.743l1.5-.059.243,6.078,2.374-.092L3.92,33.877l1.236-.05.191,4.795,2.428-.094-.247-6.209,1.495-.057.319,7.979Z" transform="translate(0 21.861)" fill="#dd6c51"/><path d="M.058,34.78.5,32.3l7.4-4.605.005-.023-6.38-1.137.3-1.673,8.895,1.584-.307,1.725L1.994,33.375l0,.012,7.257,1.292-.3,1.686Z" transform="translate(0.039 16.845)" fill="#dd6c51"/><path d="M1.71,25.927l1.654-3.81c1.587-3.659,3.994-3.964,6.222-3,2.632,1.139,3.605,3.033,2.208,6.254L10,29.515Zm8.692-1.1c.9-2.063.31-3.3-1.517-4.09-1.537-.666-3.089-.468-4.122,1.916L3.79,24.893l5.541,2.4Z" transform="translate(1.159 12.637)" fill="#dd6c51"/><path d="M4.813,19.007,9.367,12.6l1.221.864L7.065,18.423,9,19.8l2.778-3.916,1.01.715L10.014,20.51,12,21.916l3.6-5.07,1.221.866-4.625,6.518Z" transform="translate(3.262 8.534)" fill="#dd6c51"/><path d="M8.659,13.951l1.866-1.7,8.677.877.018-.017-4.362-4.8,1.257-1.142L22.2,13.864,20.9,15.04l-9.848-1.018-.01.008,4.964,5.457-1.268,1.151Z" transform="translate(5.868 4.863)" fill="#dd6c51"/><path d="M16.134,11.522c-1.248-2.273-.708-4.981,2.283-6.623C21.6,3.152,23.7,4.427,24.4,5.715l.086.156-1.411.775L23.052,6.6c-.455-.83-1.837-1.528-3.835-.431-1.976,1.084-2.372,2.85-1.48,4.476.778,1.419,2.387,2.29,4.566,1.094,1.874-1.028,2.287-2.444,1.738-3.442L24,8.222l1.411-.775.074.133c.819,1.491.518,3.833-2.5,5.488-3.432,1.882-5.761.451-6.856-1.545" transform="translate(10.507 2.741)" fill="#dd6c51"/><rect width="1.76" height="9.037" transform="translate(35.705 4.673) rotate(-20.006)" fill="#dd6c51"/><path d="M32.8,7.65,27.068,8.707l-.674,2.164-1.834.337,3.184-9.781,2.037-.376,6.45,8.006L34.2,9.433ZM31.926,6.54,28.944,2.756l-.013,0-1.443,4.6Z" transform="translate(16.642 0.713)" fill="#dd6c51"/><rect width="12.898" height="0.953" transform="translate(57.756 12.873) rotate(-86.467)" fill="#dd6c51"/></g></g></g></g></svg>