<svg xmlns="http://www.w3.org/2000/svg" xmlns:xlink="http://www.w3.org/1999/xlink" width="1920" height="359" viewBox="0 0 1920 359"><defs><clipPath id="a"><rect width="1920" height="359" transform="translate(-2256 6378)" fill="#fff" stroke="#707070" stroke-width="1"/></clipPath></defs><g transform="translate(2256 -6378)" clip-path="url(#a)"><g transform="translate(-2321 6406)" opacity="0.622"><path d="M3.066.345V60.787H258.522v.554L0,314.206v51.018H345.375V304.777H94.523v-.554L348.44,55.8V.345Z" transform="translate(0 1.115)" fill="#f4f4f4"/><rect width="69.997" height="364.878" transform="translate(399.198 1.459)" fill="#f4f4f4"/><path d="M458.735.068V262.644h-1.027L226.266.068H126.129V366.117h67.955V67.38h.5L456.693,366.117h69.481V.068Z" transform="translate(407.125 0.22)" fill="#f4f4f4"/><path d="M567.995.345V263.83h-1.023L335.529.345H235.392V367.663h67.955V67.89h.5L565.957,367.663h69.481V.345Z" transform="translate(759.815 1.115)" fill="#f4f4f4"/><rect width="69.997" height="366.337" transform="translate(1472.253)" fill="#f4f4f4"/><path d="M604.9,61.8h.516l89.4,172.586H515.5ZM568.122,0,373.454,366.337h74.089l41.894-81.281H720.879l41.9,81.281h82.258L650.38,0Z" transform="translate(1205.46)" fill="#f4f4f4"/></g></g></svg>