<svg xmlns="http://www.w3.org/2000/svg" width="90.242" height="16.23" viewBox="0 0 90.242 16.23"><g transform="translate(-599 581)"><path d="M.135.345v2.66H11.378V3.03L0,14.158V16.4H15.2v-2.66H4.16v-.024L15.335,2.786V.345Z" transform="translate(599 -581.281)" fill="#acacac"/><rect width="3.081" height="16.058" transform="translate(616.569 -580.936)" fill="#acacac"/><path d="M140.767.068V11.624h-.045L130.536.068h-4.407v16.11h2.991V3.031h.022l11.535,13.147h3.058V.068Z" transform="translate(496.34 -581.055)" fill="#acacac"/><path d="M250.03.345v11.6h-.045L239.8.345h-4.407V16.511h2.991V3.318h.022L249.94,16.511H253V.345Z" transform="translate(407.407 -581.281)" fill="#acacac"/><rect width="3.081" height="16.122" transform="translate(663.794 -581)" fill="#acacac"/><path d="M383.64,2.72h.023l3.935,7.6h-7.892ZM382.021,0l-8.567,16.122h3.261l1.844-3.577h10.186l1.844,3.577h3.62L385.642,0Z" transform="translate(295.034 -581)" fill="#acacac"/></g></svg>