<svg xmlns="http://www.w3.org/2000/svg" width="808" height="145.317" viewBox="0 0 808 145.317"><g transform="translate(0)"><path d="M1.208.345V24.162H101.871v.218L0,124.022v20.1H136.1V120.307H37.247v-.218L137.3,22.2V.345Z" transform="translate(0 0.23)" fill="#343434"/><rect width="27.582" height="143.781" transform="translate(157.305 0.575)" fill="#343434"/><path d="M257.193.068V103.537h-.4L165.588.068H126.129V144.31h26.778V26.592h.2L256.388,144.31h27.379V.068Z" transform="translate(84.001 0.045)" fill="#343434"/><path d="M366.455.345V104.172h-.4L274.851.345H235.392V145.087H262.17V26.961h.2L365.652,145.087h27.379V.345Z" transform="translate(156.77 0.23)" fill="#343434"/><rect width="27.582" height="144.355" transform="translate(580.143)" fill="#343434"/><path d="M464.657,24.354h.2L500.09,92.361H429.427ZM450.163,0,373.454,144.355h29.195l16.509-32.029h91.2l16.51,32.029h32.414L482.577,0Z" transform="translate(248.719)" fill="#343434"/></g></svg>